solid support
   facet normal 0.000000e+000 1.000000e+000 0.000000e+000
      outer loop
         vertex 4.572475e+002 1.000000e+001 3.825385e+002
         vertex 4.950000e+002 1.000000e+001 3.751000e+002
         vertex 4.950000e+002 1.000000e+001 1.240109e+002
      endloop
   endfacet
   facet normal 0.000000e+000 1.000000e+000 0.000000e+000
      outer loop
         vertex 3.768990e+002 1.000000e+001 4.782939e+002
         vertex 3.917468e+002 1.000000e+001 4.375000e+002
         vertex 0.000000e+000 1.000000e+001 0.000000e+000
      endloop
   endfacet
   facet normal 0.000000e+000 1.000000e+000 0.000000e+000
      outer loop
         vertex 3.751000e+002 1.000000e+001 4.950000e+002
         vertex 3.768990e+002 1.000000e+001 4.782939e+002
         vertex 1.240109e+002 1.000000e+001 4.950000e+002
      endloop
   endfacet
   facet normal 0.000000e+000 1.000000e+000 0.000000e+000
      outer loop
         vertex 1.240109e+002 1.000000e+001 4.950000e+002
         vertex 3.768990e+002 1.000000e+001 4.782939e+002
         vertex 0.000000e+000 1.000000e+001 0.000000e+000
      endloop
   endfacet
   facet normal 0.000000e+000 1.000000e+000 0.000000e+000
      outer loop
         vertex 1.240109e+002 1.000000e+001 4.950000e+002
         vertex 0.000000e+000 1.000000e+001 0.000000e+000
         vertex 1.240109e+002 1.000000e+001 5.050000e+002
      endloop
   endfacet
   facet normal 0.000000e+000 1.000000e+000 0.000000e+000
      outer loop
         vertex 1.240109e+002 1.000000e+001 5.050000e+002
         vertex 0.000000e+000 1.000000e+001 0.000000e+000
         vertex 0.000000e+000 1.000000e+001 1.000000e+003
      endloop
   endfacet
   facet normal 0.000000e+000 1.000000e+000 0.000000e+000
      outer loop
         vertex 4.950000e+002 1.000000e+001 6.249000e+002
         vertex 4.572475e+002 1.000000e+001 6.174615e+002
         vertex 4.950000e+002 1.000000e+001 8.759891e+002
      endloop
   endfacet
   facet normal 0.000000e+000 1.000000e+000 0.000000e+000
      outer loop
         vertex 4.950000e+002 1.000000e+001 8.759891e+002
         vertex 4.572475e+002 1.000000e+001 6.174615e+002
         vertex 0.000000e+000 1.000000e+001 1.000000e+003
      endloop
   endfacet
   facet normal 0.000000e+000 1.000000e+000 0.000000e+000
      outer loop
         vertex 4.950000e+002 1.000000e+001 8.759891e+002
         vertex 0.000000e+000 1.000000e+001 1.000000e+003
         vertex 5.050000e+002 1.000000e+001 8.759891e+002
      endloop
   endfacet
   facet normal 0.000000e+000 1.000000e+000 0.000000e+000
      outer loop
         vertex 5.050000e+002 1.000000e+001 8.759891e+002
         vertex 0.000000e+000 1.000000e+001 1.000000e+003
         vertex 1.000000e+003 1.000000e+001 1.000000e+003
      endloop
   endfacet
   facet normal 0.000000e+000 1.000000e+000 0.000000e+000
      outer loop
         vertex 4.572475e+002 1.000000e+001 3.825385e+002
         vertex 4.950000e+002 1.000000e+001 1.240109e+002
         vertex 4.196516e+002 1.000000e+001 4.042444e+002
      endloop
   endfacet
   facet normal 0.000000e+000 1.000000e+000 0.000000e+000
      outer loop
         vertex 6.249000e+002 1.000000e+001 5.050000e+002
         vertex 6.231010e+002 1.000000e+001 5.217060e+002
         vertex 8.759891e+002 1.000000e+001 5.050000e+002
      endloop
   endfacet
   facet normal 0.000000e+000 1.000000e+000 0.000000e+000
      outer loop
         vertex 8.759891e+002 1.000000e+001 5.050000e+002
         vertex 6.231010e+002 1.000000e+001 5.217060e+002
         vertex 1.000000e+003 1.000000e+001 1.000000e+003
      endloop
   endfacet
   facet normal 0.000000e+000 1.000000e+000 0.000000e+000
      outer loop
         vertex 8.759891e+002 1.000000e+001 5.050000e+002
         vertex 1.000000e+003 1.000000e+001 1.000000e+003
         vertex 8.759891e+002 1.000000e+001 4.950000e+002
      endloop
   endfacet
   facet normal 0.000000e+000 1.000000e+000 0.000000e+000
      outer loop
         vertex 8.759891e+002 1.000000e+001 4.950000e+002
         vertex 1.000000e+003 1.000000e+001 1.000000e+003
         vertex 1.000000e+003 1.000000e+001 0.000000e+000
      endloop
   endfacet
   facet normal 0.000000e+000 1.000000e+000 0.000000e+000
      outer loop
         vertex 4.572475e+002 1.000000e+001 6.174615e+002
         vertex 4.196516e+002 1.000000e+001 5.957556e+002
         vertex 0.000000e+000 1.000000e+001 1.000000e+003
      endloop
   endfacet
   facet normal 0.000000e+000 1.000000e+000 0.000000e+000
      outer loop
         vertex 0.000000e+000 1.000000e+001 1.000000e+003
         vertex 4.196516e+002 1.000000e+001 5.957556e+002
         vertex 3.917468e+002 1.000000e+001 5.625000e+002
      endloop
   endfacet
   facet normal 0.000000e+000 1.000000e+000 0.000000e+000
      outer loop
         vertex 0.000000e+000 1.000000e+001 1.000000e+003
         vertex 3.917468e+002 1.000000e+001 5.625000e+002
         vertex 1.240109e+002 1.000000e+001 5.050000e+002
      endloop
   endfacet
   facet normal 0.000000e+000 1.000000e+000 0.000000e+000
      outer loop
         vertex 1.240109e+002 1.000000e+001 5.050000e+002
         vertex 3.917468e+002 1.000000e+001 5.625000e+002
         vertex 3.768990e+002 1.000000e+001 5.217060e+002
      endloop
   endfacet
   facet normal 0.000000e+000 1.000000e+000 0.000000e+000
      outer loop
         vertex 1.240109e+002 1.000000e+001 5.050000e+002
         vertex 3.768990e+002 1.000000e+001 5.217060e+002
         vertex 3.751000e+002 1.000000e+001 5.050000e+002
      endloop
   endfacet
   facet normal 0.000000e+000 1.000000e+000 0.000000e+000
      outer loop
         vertex 5.427525e+002 1.000000e+001 3.825385e+002
         vertex 5.803484e+002 1.000000e+001 4.042444e+002
         vertex 1.000000e+003 1.000000e+001 0.000000e+000
      endloop
   endfacet
   facet normal 0.000000e+000 1.000000e+000 0.000000e+000
      outer loop
         vertex 1.000000e+003 1.000000e+001 0.000000e+000
         vertex 5.803484e+002 1.000000e+001 4.042444e+002
         vertex 6.082532e+002 1.000000e+001 4.375000e+002
      endloop
   endfacet
   facet normal 0.000000e+000 1.000000e+000 0.000000e+000
      outer loop
         vertex 1.000000e+003 1.000000e+001 0.000000e+000
         vertex 6.082532e+002 1.000000e+001 4.375000e+002
         vertex 8.759891e+002 1.000000e+001 4.950000e+002
      endloop
   endfacet
   facet normal 0.000000e+000 1.000000e+000 0.000000e+000
      outer loop
         vertex 8.759891e+002 1.000000e+001 4.950000e+002
         vertex 6.082532e+002 1.000000e+001 4.375000e+002
         vertex 6.231010e+002 1.000000e+001 4.782939e+002
      endloop
   endfacet
   facet normal 0.000000e+000 1.000000e+000 0.000000e+000
      outer loop
         vertex 8.759891e+002 1.000000e+001 4.950000e+002
         vertex 6.231010e+002 1.000000e+001 4.782939e+002
         vertex 6.249000e+002 1.000000e+001 4.950000e+002
      endloop
   endfacet
   facet normal 0.000000e+000 1.000000e+000 0.000000e+000
      outer loop
         vertex 5.050000e+002 1.000000e+001 3.751000e+002
         vertex 5.427525e+002 1.000000e+001 3.825385e+002
         vertex 5.050000e+002 1.000000e+001 1.240109e+002
      endloop
   endfacet
   facet normal 0.000000e+000 1.000000e+000 0.000000e+000
      outer loop
         vertex 5.050000e+002 1.000000e+001 1.240109e+002
         vertex 5.427525e+002 1.000000e+001 3.825385e+002
         vertex 1.000000e+003 1.000000e+001 0.000000e+000
      endloop
   endfacet
   facet normal 0.000000e+000 1.000000e+000 0.000000e+000
      outer loop
         vertex 5.050000e+002 1.000000e+001 1.240109e+002
         vertex 1.000000e+003 1.000000e+001 0.000000e+000
         vertex 4.950000e+002 1.000000e+001 1.240109e+002
      endloop
   endfacet
   facet normal 0.000000e+000 1.000000e+000 0.000000e+000
      outer loop
         vertex 4.950000e+002 1.000000e+001 1.240109e+002
         vertex 1.000000e+003 1.000000e+001 0.000000e+000
         vertex 0.000000e+000 1.000000e+001 0.000000e+000
      endloop
   endfacet
   facet normal 0.000000e+000 1.000000e+000 0.000000e+000
      outer loop
         vertex 4.950000e+002 1.000000e+001 1.240109e+002
         vertex 0.000000e+000 1.000000e+001 0.000000e+000
         vertex 4.196516e+002 1.000000e+001 4.042444e+002
      endloop
   endfacet
   facet normal 0.000000e+000 1.000000e+000 0.000000e+000
      outer loop
         vertex 4.196516e+002 1.000000e+001 4.042444e+002
         vertex 0.000000e+000 1.000000e+001 0.000000e+000
         vertex 3.917468e+002 1.000000e+001 4.375000e+002
      endloop
   endfacet
   facet normal 0.000000e+000 1.000000e+000 0.000000e+000
      outer loop
         vertex 6.231010e+002 1.000000e+001 5.217060e+002
         vertex 6.082532e+002 1.000000e+001 5.625000e+002
         vertex 1.000000e+003 1.000000e+001 1.000000e+003
      endloop
   endfacet
   facet normal 0.000000e+000 1.000000e+000 0.000000e+000
      outer loop
         vertex 1.000000e+003 1.000000e+001 1.000000e+003
         vertex 6.082532e+002 1.000000e+001 5.625000e+002
         vertex 5.803484e+002 1.000000e+001 5.957556e+002
      endloop
   endfacet
   facet normal 0.000000e+000 1.000000e+000 0.000000e+000
      outer loop
         vertex 1.000000e+003 1.000000e+001 1.000000e+003
         vertex 5.803484e+002 1.000000e+001 5.957556e+002
         vertex 5.050000e+002 1.000000e+001 8.759891e+002
      endloop
   endfacet
   facet normal 0.000000e+000 1.000000e+000 0.000000e+000
      outer loop
         vertex 5.050000e+002 1.000000e+001 8.759891e+002
         vertex 5.803484e+002 1.000000e+001 5.957556e+002
         vertex 5.427525e+002 1.000000e+001 6.174615e+002
      endloop
   endfacet
   facet normal 0.000000e+000 1.000000e+000 0.000000e+000
      outer loop
         vertex 5.050000e+002 1.000000e+001 8.759891e+002
         vertex 5.427525e+002 1.000000e+001 6.174615e+002
         vertex 5.050000e+002 1.000000e+001 6.249000e+002
      endloop
   endfacet
   facet normal -1.421783e-001 -2.992267e-016 9.898410e-001
      outer loop
         vertex 4.572475e+002 1.000000e+001 6.174615e+002
         vertex 4.950000e+002 1.000000e+001 6.249000e+002
         vertex 4.950000e+002 3.177730e+002 6.249000e+002
      endloop
   endfacet
   facet normal -9.964048e-001 -2.966557e-016 -8.471965e-002
      outer loop
         vertex 3.768990e+002 1.000000e+001 4.782939e+002
         vertex 3.751000e+002 1.000000e+001 4.950000e+002
         vertex 3.751000e+002 3.177730e+002 4.950000e+002
      endloop
   endfacet
   facet normal 1.421783e-001 -2.992267e-016 -9.898410e-001
      outer loop
         vertex 5.427525e+002 1.000000e+001 3.825385e+002
         vertex 5.050000e+002 1.000000e+001 3.751000e+002
         vertex 5.050000e+002 3.177730e+002 3.751000e+002
      endloop
   endfacet
   facet normal 9.964048e-001 -2.966557e-016 8.471965e-002
      outer loop
         vertex 6.231010e+002 1.000000e+001 5.217060e+002
         vertex 6.249000e+002 1.000000e+001 5.050000e+002
         vertex 6.249000e+002 3.177730e+002 5.050000e+002
      endloop
   endfacet
   facet normal -9.983101e-001 -2.972229e-016 5.811019e-002
      outer loop
         vertex 3.751000e+002 3.177730e+002 5.050000e+002
         vertex 3.768990e+002 7.400000e+002 5.217060e+002
         vertex 3.751000e+002 3.177730e+002 4.950000e+002
      endloop
   endfacet
   facet normal -9.999092e-001 -2.991422e-016 -1.347216e-002
      outer loop
         vertex 3.751000e+002 3.177730e+002 4.950000e+002
         vertex 3.768990e+002 7.400000e+002 5.217060e+002
         vertex 3.768990e+002 7.400000e+002 4.782939e+002
      endloop
   endfacet
   facet normal -9.915979e-001 -2.966557e-016 -1.293588e-001
      outer loop
         vertex 3.751000e+002 3.177730e+002 4.950000e+002
         vertex 3.768990e+002 7.400000e+002 4.782939e+002
         vertex 3.768990e+002 1.000000e+001 4.782939e+002
      endloop
   endfacet
   facet normal -9.581415e-001 0.000000e+000 -2.862950e-001
      outer loop
         vertex 3.768990e+002 1.000000e+001 4.782939e+002
         vertex 3.768990e+002 7.400000e+002 4.782939e+002
         vertex 3.917468e+002 7.400000e+002 4.375000e+002
      endloop
   endfacet
   facet normal -9.180059e-001 0.000000e+000 -3.965668e-001
      outer loop
         vertex 3.768990e+002 1.000000e+001 4.782939e+002
         vertex 3.917468e+002 7.400000e+002 4.375000e+002
         vertex 3.917468e+002 1.000000e+001 4.375000e+002
      endloop
   endfacet
   facet normal -8.024399e-001 0.000000e+000 -5.967330e-001
      outer loop
         vertex 3.917468e+002 1.000000e+001 4.375000e+002
         vertex 3.917468e+002 7.400000e+002 4.375000e+002
         vertex 4.196516e+002 7.400000e+002 4.042444e+002
      endloop
   endfacet
   facet normal -7.270095e-001 0.000000e+000 -6.866274e-001
      outer loop
         vertex 3.917468e+002 1.000000e+001 4.375000e+002
         vertex 4.196516e+002 7.400000e+002 4.042444e+002
         vertex 4.196516e+002 1.000000e+001 4.042444e+002
      endloop
   endfacet
   facet normal -5.499521e-001 0.000000e+000 -8.351962e-001
      outer loop
         vertex 4.196516e+002 1.000000e+001 4.042444e+002
         vertex 4.196516e+002 7.400000e+002 4.042444e+002
         vertex 4.572475e+002 7.400000e+002 3.825385e+002
      endloop
   endfacet
   facet normal -4.483251e-001 0.000000e+000 -8.938706e-001
      outer loop
         vertex 4.196516e+002 1.000000e+001 4.042444e+002
         vertex 4.572475e+002 7.400000e+002 3.825385e+002
         vertex 4.572475e+002 1.000000e+001 3.825385e+002
      endloop
   endfacet
   facet normal 1.289033e-001 -2.996940e-016 9.916572e-001
      outer loop
         vertex 5.050000e+002 3.177730e+002 6.249000e+002
         vertex 5.427525e+002 7.400000e+002 6.174615e+002
         vertex 5.000000e+002 3.177730e+002 6.249000e+002
      endloop
   endfacet
   facet normal 1.155660e-001 -3.001087e-016 9.932998e-001
      outer loop
         vertex 5.000000e+002 3.177730e+002 6.249000e+002
         vertex 5.427525e+002 7.400000e+002 6.174615e+002
         vertex 5.000000e+002 7.400000e+002 6.250000e+002
      endloop
   endfacet
   facet normal -1.333570e-002 -5.922243e-016 9.999111e-001
      outer loop
         vertex 5.000000e+002 3.177730e+002 6.249000e+002
         vertex 5.000000e+002 7.400000e+002 6.250000e+002
         vertex 4.950000e+002 3.177730e+002 6.249000e+002
      endloop
   endfacet
   facet normal -1.289033e-001 -2.996940e-016 9.916572e-001
      outer loop
         vertex 4.950000e+002 3.177730e+002 6.249000e+002
         vertex 5.000000e+002 7.400000e+002 6.250000e+002
         vertex 4.572475e+002 7.400000e+002 6.174615e+002
      endloop
   endfacet
   facet normal -2.439287e-001 -2.992267e-016 9.697932e-001
      outer loop
         vertex 4.950000e+002 3.177730e+002 6.249000e+002
         vertex 4.572475e+002 7.400000e+002 6.174615e+002
         vertex 4.572475e+002 1.000000e+001 6.174615e+002
      endloop
   endfacet
   facet normal -4.483251e-001 0.000000e+000 8.938706e-001
      outer loop
         vertex 4.572475e+002 1.000000e+001 6.174615e+002
         vertex 4.572475e+002 7.400000e+002 6.174615e+002
         vertex 4.196516e+002 7.400000e+002 5.957556e+002
      endloop
   endfacet
   facet normal -5.499521e-001 0.000000e+000 8.351962e-001
      outer loop
         vertex 4.572475e+002 1.000000e+001 6.174615e+002
         vertex 4.196516e+002 7.400000e+002 5.957556e+002
         vertex 4.196516e+002 1.000000e+001 5.957556e+002
      endloop
   endfacet
   facet normal -7.270095e-001 0.000000e+000 6.866274e-001
      outer loop
         vertex 4.196516e+002 1.000000e+001 5.957556e+002
         vertex 4.196516e+002 7.400000e+002 5.957556e+002
         vertex 3.917468e+002 7.400000e+002 5.625000e+002
      endloop
   endfacet
   facet normal -8.024399e-001 0.000000e+000 5.967330e-001
      outer loop
         vertex 4.196516e+002 1.000000e+001 5.957556e+002
         vertex 3.917468e+002 7.400000e+002 5.625000e+002
         vertex 3.917468e+002 1.000000e+001 5.625000e+002
      endloop
   endfacet
   facet normal -9.180059e-001 0.000000e+000 3.965668e-001
      outer loop
         vertex 3.917468e+002 1.000000e+001 5.625000e+002
         vertex 3.917468e+002 7.400000e+002 5.625000e+002
         vertex 3.768990e+002 7.400000e+002 5.217060e+002
      endloop
   endfacet
   facet normal -9.581415e-001 0.000000e+000 2.862950e-001
      outer loop
         vertex 3.917468e+002 1.000000e+001 5.625000e+002
         vertex 3.768990e+002 7.400000e+002 5.217060e+002
         vertex 3.768990e+002 1.000000e+001 5.217060e+002
      endloop
   endfacet
   facet normal -9.915979e-001 0.000000e+000 1.293588e-001
      outer loop
         vertex 3.768990e+002 1.000000e+001 5.217060e+002
         vertex 3.768990e+002 7.400000e+002 5.217060e+002
         vertex 3.751000e+002 3.177730e+002 5.050000e+002
      endloop
   endfacet
   facet normal -9.964048e-001 0.000000e+000 8.471965e-002
      outer loop
         vertex 3.768990e+002 1.000000e+001 5.217060e+002
         vertex 3.751000e+002 3.177730e+002 5.050000e+002
         vertex 3.751000e+002 1.000000e+001 5.050000e+002
      endloop
   endfacet
   facet normal 9.983101e-001 -2.972229e-016 -5.811019e-002
      outer loop
         vertex 6.249000e+002 3.177730e+002 4.950000e+002
         vertex 6.231010e+002 7.400000e+002 4.782939e+002
         vertex 6.249000e+002 3.177730e+002 5.050000e+002
      endloop
   endfacet
   facet normal 9.999092e-001 -2.991422e-016 1.347216e-002
      outer loop
         vertex 6.249000e+002 3.177730e+002 5.050000e+002
         vertex 6.231010e+002 7.400000e+002 4.782939e+002
         vertex 6.231010e+002 7.400000e+002 5.217060e+002
      endloop
   endfacet
   facet normal 9.915979e-001 -2.966557e-016 1.293588e-001
      outer loop
         vertex 6.249000e+002 3.177730e+002 5.050000e+002
         vertex 6.231010e+002 7.400000e+002 5.217060e+002
         vertex 6.231010e+002 1.000000e+001 5.217060e+002
      endloop
   endfacet
   facet normal 9.581415e-001 0.000000e+000 2.862950e-001
      outer loop
         vertex 6.231010e+002 1.000000e+001 5.217060e+002
         vertex 6.231010e+002 7.400000e+002 5.217060e+002
         vertex 6.082532e+002 7.400000e+002 5.625000e+002
      endloop
   endfacet
   facet normal 9.180059e-001 0.000000e+000 3.965668e-001
      outer loop
         vertex 6.231010e+002 1.000000e+001 5.217060e+002
         vertex 6.082532e+002 7.400000e+002 5.625000e+002
         vertex 6.082532e+002 1.000000e+001 5.625000e+002
      endloop
   endfacet
   facet normal 8.024399e-001 0.000000e+000 5.967330e-001
      outer loop
         vertex 6.082532e+002 1.000000e+001 5.625000e+002
         vertex 6.082532e+002 7.400000e+002 5.625000e+002
         vertex 5.803484e+002 7.400000e+002 5.957556e+002
      endloop
   endfacet
   facet normal 7.270095e-001 0.000000e+000 6.866274e-001
      outer loop
         vertex 6.082532e+002 1.000000e+001 5.625000e+002
         vertex 5.803484e+002 7.400000e+002 5.957556e+002
         vertex 5.803484e+002 1.000000e+001 5.957556e+002
      endloop
   endfacet
   facet normal 5.499521e-001 0.000000e+000 8.351962e-001
      outer loop
         vertex 5.803484e+002 1.000000e+001 5.957556e+002
         vertex 5.803484e+002 7.400000e+002 5.957556e+002
         vertex 5.427525e+002 7.400000e+002 6.174615e+002
      endloop
   endfacet
   facet normal 4.483251e-001 0.000000e+000 8.938706e-001
      outer loop
         vertex 5.803484e+002 1.000000e+001 5.957556e+002
         vertex 5.427525e+002 7.400000e+002 6.174615e+002
         vertex 5.427525e+002 1.000000e+001 6.174615e+002
      endloop
   endfacet
   facet normal 2.439287e-001 0.000000e+000 9.697932e-001
      outer loop
         vertex 5.427525e+002 1.000000e+001 6.174615e+002
         vertex 5.427525e+002 7.400000e+002 6.174615e+002
         vertex 5.050000e+002 3.177730e+002 6.249000e+002
      endloop
   endfacet
   facet normal 1.421783e-001 0.000000e+000 9.898410e-001
      outer loop
         vertex 5.427525e+002 1.000000e+001 6.174615e+002
         vertex 5.050000e+002 3.177730e+002 6.249000e+002
         vertex 5.050000e+002 1.000000e+001 6.249000e+002
      endloop
   endfacet
   facet normal -1.421783e-001 0.000000e+000 -9.898410e-001
      outer loop
         vertex 4.950000e+002 1.000000e+001 3.751000e+002
         vertex 4.572475e+002 1.000000e+001 3.825385e+002
         vertex 4.950000e+002 3.177730e+002 3.751000e+002
      endloop
   endfacet
   facet normal -2.439287e-001 0.000000e+000 -9.697932e-001
      outer loop
         vertex 4.950000e+002 3.177730e+002 3.751000e+002
         vertex 4.572475e+002 1.000000e+001 3.825385e+002
         vertex 4.572475e+002 7.400000e+002 3.825385e+002
      endloop
   endfacet
   facet normal -1.289033e-001 -2.996940e-016 -9.916572e-001
      outer loop
         vertex 4.950000e+002 3.177730e+002 3.751000e+002
         vertex 4.572475e+002 7.400000e+002 3.825385e+002
         vertex 5.000000e+002 3.177730e+002 3.751000e+002
      endloop
   endfacet
   facet normal -1.155660e-001 -3.001087e-016 -9.932998e-001
      outer loop
         vertex 5.000000e+002 3.177730e+002 3.751000e+002
         vertex 4.572475e+002 7.400000e+002 3.825385e+002
         vertex 5.000000e+002 7.400000e+002 3.750000e+002
      endloop
   endfacet
   facet normal 1.333570e-002 -5.922243e-016 -9.999111e-001
      outer loop
         vertex 5.000000e+002 3.177730e+002 3.751000e+002
         vertex 5.000000e+002 7.400000e+002 3.750000e+002
         vertex 5.050000e+002 3.177730e+002 3.751000e+002
      endloop
   endfacet
   facet normal 1.289033e-001 -2.996940e-016 -9.916572e-001
      outer loop
         vertex 5.050000e+002 3.177730e+002 3.751000e+002
         vertex 5.000000e+002 7.400000e+002 3.750000e+002
         vertex 5.427525e+002 7.400000e+002 3.825385e+002
      endloop
   endfacet
   facet normal 2.439287e-001 -2.992267e-016 -9.697932e-001
      outer loop
         vertex 5.050000e+002 3.177730e+002 3.751000e+002
         vertex 5.427525e+002 7.400000e+002 3.825385e+002
         vertex 5.427525e+002 1.000000e+001 3.825385e+002
      endloop
   endfacet
   facet normal 4.483251e-001 0.000000e+000 -8.938706e-001
      outer loop
         vertex 5.427525e+002 1.000000e+001 3.825385e+002
         vertex 5.427525e+002 7.400000e+002 3.825385e+002
         vertex 5.803484e+002 7.400000e+002 4.042444e+002
      endloop
   endfacet
   facet normal 5.499521e-001 0.000000e+000 -8.351962e-001
      outer loop
         vertex 5.427525e+002 1.000000e+001 3.825385e+002
         vertex 5.803484e+002 7.400000e+002 4.042444e+002
         vertex 5.803484e+002 1.000000e+001 4.042444e+002
      endloop
   endfacet
   facet normal 7.270095e-001 0.000000e+000 -6.866274e-001
      outer loop
         vertex 5.803484e+002 1.000000e+001 4.042444e+002
         vertex 5.803484e+002 7.400000e+002 4.042444e+002
         vertex 6.082532e+002 7.400000e+002 4.375000e+002
      endloop
   endfacet
   facet normal 8.024399e-001 0.000000e+000 -5.967330e-001
      outer loop
         vertex 5.803484e+002 1.000000e+001 4.042444e+002
         vertex 6.082532e+002 7.400000e+002 4.375000e+002
         vertex 6.082532e+002 1.000000e+001 4.375000e+002
      endloop
   endfacet
   facet normal 9.180059e-001 0.000000e+000 -3.965668e-001
      outer loop
         vertex 6.082532e+002 1.000000e+001 4.375000e+002
         vertex 6.082532e+002 7.400000e+002 4.375000e+002
         vertex 6.231010e+002 7.400000e+002 4.782939e+002
      endloop
   endfacet
   facet normal 9.581415e-001 0.000000e+000 -2.862950e-001
      outer loop
         vertex 6.082532e+002 1.000000e+001 4.375000e+002
         vertex 6.231010e+002 7.400000e+002 4.782939e+002
         vertex 6.231010e+002 1.000000e+001 4.782939e+002
      endloop
   endfacet
   facet normal 9.915979e-001 0.000000e+000 -1.293588e-001
      outer loop
         vertex 6.231010e+002 1.000000e+001 4.782939e+002
         vertex 6.231010e+002 7.400000e+002 4.782939e+002
         vertex 6.249000e+002 3.177730e+002 4.950000e+002
      endloop
   endfacet
   facet normal 9.964048e-001 0.000000e+000 -8.471965e-002
      outer loop
         vertex 6.231010e+002 1.000000e+001 4.782939e+002
         vertex 6.249000e+002 3.177730e+002 4.950000e+002
         vertex 6.249000e+002 1.000000e+001 4.950000e+002
      endloop
   endfacet
   facet normal -1.000000e+000 0.000000e+000 0.000000e+000
      outer loop
         vertex 0.000000e+000 1.000000e+001 1.000000e+003
         vertex 0.000000e+000 1.000000e+001 0.000000e+000
         vertex 0.000000e+000 0.000000e+000 1.000000e+003
      endloop
   endfacet
   facet normal -1.000000e+000 0.000000e+000 0.000000e+000
      outer loop
         vertex 0.000000e+000 0.000000e+000 1.000000e+003
         vertex 0.000000e+000 1.000000e+001 0.000000e+000
         vertex 0.000000e+000 0.000000e+000 0.000000e+000
      endloop
   endfacet
   facet normal 0.000000e+000 0.000000e+000 1.000000e+000
      outer loop
         vertex 1.000000e+003 1.000000e+001 1.000000e+003
         vertex 0.000000e+000 1.000000e+001 1.000000e+003
         vertex 1.000000e+003 0.000000e+000 1.000000e+003
      endloop
   endfacet
   facet normal 0.000000e+000 0.000000e+000 1.000000e+000
      outer loop
         vertex 1.000000e+003 0.000000e+000 1.000000e+003
         vertex 0.000000e+000 1.000000e+001 1.000000e+003
         vertex 0.000000e+000 0.000000e+000 1.000000e+003
      endloop
   endfacet
   facet normal 1.000000e+000 0.000000e+000 0.000000e+000
      outer loop
         vertex 1.000000e+003 1.000000e+001 0.000000e+000
         vertex 1.000000e+003 1.000000e+001 1.000000e+003
         vertex 1.000000e+003 0.000000e+000 0.000000e+000
      endloop
   endfacet
   facet normal 1.000000e+000 0.000000e+000 0.000000e+000
      outer loop
         vertex 1.000000e+003 0.000000e+000 0.000000e+000
         vertex 1.000000e+003 1.000000e+001 1.000000e+003
         vertex 1.000000e+003 0.000000e+000 1.000000e+003
      endloop
   endfacet
   facet normal 0.000000e+000 0.000000e+000 -1.000000e+000
      outer loop
         vertex 0.000000e+000 1.000000e+001 0.000000e+000
         vertex 1.000000e+003 1.000000e+001 0.000000e+000
         vertex 0.000000e+000 0.000000e+000 0.000000e+000
      endloop
   endfacet
   facet normal 0.000000e+000 0.000000e+000 -1.000000e+000
      outer loop
         vertex 0.000000e+000 0.000000e+000 0.000000e+000
         vertex 1.000000e+003 1.000000e+001 0.000000e+000
         vertex 1.000000e+003 0.000000e+000 0.000000e+000
      endloop
   endfacet
   facet normal 0.000000e+000 -1.000000e+000 0.000000e+000
      outer loop
         vertex 1.000000e+003 0.000000e+000 0.000000e+000
         vertex 1.000000e+003 0.000000e+000 1.000000e+003
         vertex 0.000000e+000 0.000000e+000 0.000000e+000
      endloop
   endfacet
   facet normal 0.000000e+000 -1.000000e+000 0.000000e+000
      outer loop
         vertex 0.000000e+000 0.000000e+000 0.000000e+000
         vertex 1.000000e+003 0.000000e+000 1.000000e+003
         vertex 0.000000e+000 0.000000e+000 1.000000e+003
      endloop
   endfacet
   facet normal 0.000000e+000 -1.000000e+000 0.000000e+000
      outer loop
         vertex 5.803484e+002 7.400000e+002 5.957556e+002
         vertex 6.082532e+002 7.400000e+002 5.625000e+002
         vertex 6.500000e+002 7.400000e+002 6.500000e+002
      endloop
   endfacet
   facet normal 0.000000e+000 -1.000000e+000 0.000000e+000
      outer loop
         vertex 3.917468e+002 7.400000e+002 5.625000e+002
         vertex 4.196516e+002 7.400000e+002 5.957556e+002
         vertex 3.500000e+002 7.400000e+002 6.500000e+002
      endloop
   endfacet
   facet normal 0.000000e+000 -1.000000e+000 0.000000e+000
      outer loop
         vertex 6.082532e+002 7.400000e+002 5.625000e+002
         vertex 6.231010e+002 7.400000e+002 5.217060e+002
         vertex 6.500000e+002 7.400000e+002 6.500000e+002
      endloop
   endfacet
   facet normal 0.000000e+000 -1.000000e+000 0.000000e+000
      outer loop
         vertex 6.500000e+002 7.400000e+002 6.500000e+002
         vertex 6.231010e+002 7.400000e+002 5.217060e+002
         vertex 6.231010e+002 7.400000e+002 4.782939e+002
      endloop
   endfacet
   facet normal 0.000000e+000 -1.000000e+000 0.000000e+000
      outer loop
         vertex 6.500000e+002 7.400000e+002 6.500000e+002
         vertex 6.231010e+002 7.400000e+002 4.782939e+002
         vertex 6.500000e+002 7.400000e+002 3.500000e+002
      endloop
   endfacet
   facet normal 0.000000e+000 -1.000000e+000 0.000000e+000
      outer loop
         vertex 6.500000e+002 7.400000e+002 3.500000e+002
         vertex 6.231010e+002 7.400000e+002 4.782939e+002
         vertex 6.082532e+002 7.400000e+002 4.375000e+002
      endloop
   endfacet
   facet normal 0.000000e+000 -1.000000e+000 0.000000e+000
      outer loop
         vertex 6.500000e+002 7.400000e+002 3.500000e+002
         vertex 6.082532e+002 7.400000e+002 4.375000e+002
         vertex 5.803484e+002 7.400000e+002 4.042444e+002
      endloop
   endfacet
   facet normal 0.000000e+000 -1.000000e+000 0.000000e+000
      outer loop
         vertex 5.803484e+002 7.400000e+002 4.042444e+002
         vertex 5.427525e+002 7.400000e+002 3.825385e+002
         vertex 6.500000e+002 7.400000e+002 3.500000e+002
      endloop
   endfacet
   facet normal 0.000000e+000 -1.000000e+000 0.000000e+000
      outer loop
         vertex 6.500000e+002 7.400000e+002 3.500000e+002
         vertex 5.427525e+002 7.400000e+002 3.825385e+002
         vertex 5.000000e+002 7.400000e+002 3.750000e+002
      endloop
   endfacet
   facet normal 0.000000e+000 -1.000000e+000 0.000000e+000
      outer loop
         vertex 6.500000e+002 7.400000e+002 3.500000e+002
         vertex 5.000000e+002 7.400000e+002 3.750000e+002
         vertex 3.500000e+002 7.400000e+002 3.500000e+002
      endloop
   endfacet
   facet normal 0.000000e+000 -1.000000e+000 0.000000e+000
      outer loop
         vertex 3.500000e+002 7.400000e+002 3.500000e+002
         vertex 5.000000e+002 7.400000e+002 3.750000e+002
         vertex 4.572475e+002 7.400000e+002 3.825385e+002
      endloop
   endfacet
   facet normal 0.000000e+000 -1.000000e+000 0.000000e+000
      outer loop
         vertex 3.500000e+002 7.400000e+002 3.500000e+002
         vertex 4.572475e+002 7.400000e+002 3.825385e+002
         vertex 4.196516e+002 7.400000e+002 4.042444e+002
      endloop
   endfacet
   facet normal 0.000000e+000 -1.000000e+000 0.000000e+000
      outer loop
         vertex 4.196516e+002 7.400000e+002 4.042444e+002
         vertex 3.917468e+002 7.400000e+002 4.375000e+002
         vertex 3.500000e+002 7.400000e+002 3.500000e+002
      endloop
   endfacet
   facet normal 0.000000e+000 -1.000000e+000 0.000000e+000
      outer loop
         vertex 3.500000e+002 7.400000e+002 3.500000e+002
         vertex 3.917468e+002 7.400000e+002 4.375000e+002
         vertex 3.768990e+002 7.400000e+002 4.782939e+002
      endloop
   endfacet
   facet normal 0.000000e+000 -1.000000e+000 0.000000e+000
      outer loop
         vertex 3.500000e+002 7.400000e+002 3.500000e+002
         vertex 3.768990e+002 7.400000e+002 4.782939e+002
         vertex 3.500000e+002 7.400000e+002 6.500000e+002
      endloop
   endfacet
   facet normal 0.000000e+000 -1.000000e+000 0.000000e+000
      outer loop
         vertex 3.500000e+002 7.400000e+002 6.500000e+002
         vertex 3.768990e+002 7.400000e+002 4.782939e+002
         vertex 3.768990e+002 7.400000e+002 5.217060e+002
      endloop
   endfacet
   facet normal 0.000000e+000 -1.000000e+000 0.000000e+000
      outer loop
         vertex 3.500000e+002 7.400000e+002 6.500000e+002
         vertex 3.768990e+002 7.400000e+002 5.217060e+002
         vertex 3.917468e+002 7.400000e+002 5.625000e+002
      endloop
   endfacet
   facet normal 0.000000e+000 -1.000000e+000 0.000000e+000
      outer loop
         vertex 4.196516e+002 7.400000e+002 5.957556e+002
         vertex 4.572475e+002 7.400000e+002 6.174615e+002
         vertex 3.500000e+002 7.400000e+002 6.500000e+002
      endloop
   endfacet
   facet normal 0.000000e+000 -1.000000e+000 0.000000e+000
      outer loop
         vertex 3.500000e+002 7.400000e+002 6.500000e+002
         vertex 4.572475e+002 7.400000e+002 6.174615e+002
         vertex 5.000000e+002 7.400000e+002 6.250000e+002
      endloop
   endfacet
   facet normal 0.000000e+000 -1.000000e+000 0.000000e+000
      outer loop
         vertex 3.500000e+002 7.400000e+002 6.500000e+002
         vertex 5.000000e+002 7.400000e+002 6.250000e+002
         vertex 6.500000e+002 7.400000e+002 6.500000e+002
      endloop
   endfacet
   facet normal 0.000000e+000 -1.000000e+000 0.000000e+000
      outer loop
         vertex 6.500000e+002 7.400000e+002 6.500000e+002
         vertex 5.000000e+002 7.400000e+002 6.250000e+002
         vertex 5.427525e+002 7.400000e+002 6.174615e+002
      endloop
   endfacet
   facet normal 0.000000e+000 -1.000000e+000 0.000000e+000
      outer loop
         vertex 6.500000e+002 7.400000e+002 6.500000e+002
         vertex 5.427525e+002 7.400000e+002 6.174615e+002
         vertex 5.803484e+002 7.400000e+002 5.957556e+002
      endloop
   endfacet
   facet normal -1.000000e+000 0.000000e+000 -5.551115e-016
      outer loop
         vertex 3.500000e+002 7.500000e+002 6.500000e+002
         vertex 3.500000e+002 7.500000e+002 3.500000e+002
         vertex 3.500000e+002 7.400000e+002 6.500000e+002
      endloop
   endfacet
   facet normal -1.000000e+000 0.000000e+000 -5.551115e-016
      outer loop
         vertex 3.500000e+002 7.400000e+002 6.500000e+002
         vertex 3.500000e+002 7.500000e+002 3.500000e+002
         vertex 3.500000e+002 7.400000e+002 3.500000e+002
      endloop
   endfacet
   facet normal 1.850372e-016 0.000000e+000 1.000000e+000
      outer loop
         vertex 6.500000e+002 7.500000e+002 6.500000e+002
         vertex 3.500000e+002 7.500000e+002 6.500000e+002
         vertex 6.500000e+002 7.400000e+002 6.500000e+002
      endloop
   endfacet
   facet normal 1.850372e-016 0.000000e+000 1.000000e+000
      outer loop
         vertex 6.500000e+002 7.400000e+002 6.500000e+002
         vertex 3.500000e+002 7.500000e+002 6.500000e+002
         vertex 3.500000e+002 7.400000e+002 6.500000e+002
      endloop
   endfacet
   facet normal 1.000000e+000 0.000000e+000 0.000000e+000
      outer loop
         vertex 6.500000e+002 7.500000e+002 3.500000e+002
         vertex 6.500000e+002 7.500000e+002 6.500000e+002
         vertex 6.500000e+002 7.400000e+002 3.500000e+002
      endloop
   endfacet
   facet normal 1.000000e+000 0.000000e+000 0.000000e+000
      outer loop
         vertex 6.500000e+002 7.400000e+002 3.500000e+002
         vertex 6.500000e+002 7.500000e+002 6.500000e+002
         vertex 6.500000e+002 7.400000e+002 6.500000e+002
      endloop
   endfacet
   facet normal 0.000000e+000 0.000000e+000 -1.000000e+000
      outer loop
         vertex 3.500000e+002 7.500000e+002 3.500000e+002
         vertex 6.500000e+002 7.500000e+002 3.500000e+002
         vertex 3.500000e+002 7.400000e+002 3.500000e+002
      endloop
   endfacet
   facet normal 0.000000e+000 0.000000e+000 -1.000000e+000
      outer loop
         vertex 3.500000e+002 7.400000e+002 3.500000e+002
         vertex 6.500000e+002 7.500000e+002 3.500000e+002
         vertex 6.500000e+002 7.400000e+002 3.500000e+002
      endloop
   endfacet
   facet normal 0.000000e+000 1.000000e+000 0.000000e+000
      outer loop
         vertex 6.500000e+002 7.500000e+002 6.500000e+002
         vertex 6.500000e+002 7.500000e+002 3.500000e+002
         vertex 3.500000e+002 7.500000e+002 6.500000e+002
      endloop
   endfacet
   facet normal 0.000000e+000 1.000000e+000 0.000000e+000
      outer loop
         vertex 3.500000e+002 7.500000e+002 6.500000e+002
         vertex 6.500000e+002 7.500000e+002 3.500000e+002
         vertex 3.500000e+002 7.500000e+002 3.500000e+002
      endloop
   endfacet
   facet normal 0.000000e+000 6.321436e-001 7.748514e-001
      outer loop
         vertex 4.950000e+002 3.177730e+002 6.249000e+002
         vertex 4.950000e+002 1.000000e+001 8.759891e+002
         vertex 5.000000e+002 3.177730e+002 6.249000e+002
      endloop
   endfacet
   facet normal 0.000000e+000 6.321436e-001 7.748514e-001
      outer loop
         vertex 5.000000e+002 3.177730e+002 6.249000e+002
         vertex 4.950000e+002 1.000000e+001 8.759891e+002
         vertex 5.050000e+002 1.000000e+001 8.759891e+002
      endloop
   endfacet
   facet normal 0.000000e+000 6.321436e-001 7.748514e-001
      outer loop
         vertex 5.000000e+002 3.177730e+002 6.249000e+002
         vertex 5.050000e+002 1.000000e+001 8.759891e+002
         vertex 5.050000e+002 3.177730e+002 6.249000e+002
      endloop
   endfacet
   facet normal -1.000000e+000 0.000000e+000 0.000000e+000
      outer loop
         vertex 4.950000e+002 3.177730e+002 6.249000e+002
         vertex 4.950000e+002 1.000000e+001 6.249000e+002
         vertex 4.950000e+002 1.000000e+001 8.759891e+002
      endloop
   endfacet
   facet normal 1.000000e+000 0.000000e+000 0.000000e+000
      outer loop
         vertex 5.050000e+002 3.177730e+002 6.249000e+002
         vertex 5.050000e+002 1.000000e+001 8.759891e+002
         vertex 5.050000e+002 1.000000e+001 6.249000e+002
      endloop
   endfacet
   facet normal -7.748514e-001 6.321436e-001 -2.705379e-015
      outer loop
         vertex 1.240109e+002 1.000000e+001 4.950000e+002
         vertex 1.240109e+002 1.000000e+001 5.050000e+002
         vertex 3.751000e+002 3.177730e+002 4.950000e+002
      endloop
   endfacet
   facet normal -7.748514e-001 6.321436e-001 -2.705379e-015
      outer loop
         vertex 3.751000e+002 3.177730e+002 4.950000e+002
         vertex 1.240109e+002 1.000000e+001 5.050000e+002
         vertex 3.751000e+002 3.177730e+002 5.050000e+002
      endloop
   endfacet
   facet normal 3.491481e-015 0.000000e+000 -1.000000e+000
      outer loop
         vertex 3.751000e+002 3.177730e+002 4.950000e+002
         vertex 3.751000e+002 1.000000e+001 4.950000e+002
         vertex 1.240109e+002 1.000000e+001 4.950000e+002
      endloop
   endfacet
   facet normal -3.491481e-015 0.000000e+000 1.000000e+000
      outer loop
         vertex 3.751000e+002 3.177730e+002 5.050000e+002
         vertex 1.240109e+002 1.000000e+001 5.050000e+002
         vertex 3.751000e+002 1.000000e+001 5.050000e+002
      endloop
   endfacet
   facet normal 0.000000e+000 6.321436e-001 -7.748514e-001
      outer loop
         vertex 5.050000e+002 3.177730e+002 3.751000e+002
         vertex 5.050000e+002 1.000000e+001 1.240109e+002
         vertex 5.000000e+002 3.177730e+002 3.751000e+002
      endloop
   endfacet
   facet normal 0.000000e+000 6.321436e-001 -7.748514e-001
      outer loop
         vertex 5.000000e+002 3.177730e+002 3.751000e+002
         vertex 5.050000e+002 1.000000e+001 1.240109e+002
         vertex 4.950000e+002 1.000000e+001 1.240109e+002
      endloop
   endfacet
   facet normal 0.000000e+000 6.321436e-001 -7.748514e-001
      outer loop
         vertex 5.000000e+002 3.177730e+002 3.751000e+002
         vertex 4.950000e+002 1.000000e+001 1.240109e+002
         vertex 4.950000e+002 3.177730e+002 3.751000e+002
      endloop
   endfacet
   facet normal 1.000000e+000 0.000000e+000 0.000000e+000
      outer loop
         vertex 5.050000e+002 3.177730e+002 3.751000e+002
         vertex 5.050000e+002 1.000000e+001 3.751000e+002
         vertex 5.050000e+002 1.000000e+001 1.240109e+002
      endloop
   endfacet
   facet normal -1.000000e+000 0.000000e+000 0.000000e+000
      outer loop
         vertex 4.950000e+002 3.177730e+002 3.751000e+002
         vertex 4.950000e+002 1.000000e+001 1.240109e+002
         vertex 4.950000e+002 1.000000e+001 3.751000e+002
      endloop
   endfacet
   facet normal 7.748514e-001 6.321436e-001 8.116138e-015
      outer loop
         vertex 8.759891e+002 1.000000e+001 5.050000e+002
         vertex 8.759891e+002 1.000000e+001 4.950000e+002
         vertex 6.249000e+002 3.177730e+002 5.050000e+002
      endloop
   endfacet
   facet normal 7.748514e-001 6.321436e-001 8.116138e-015
      outer loop
         vertex 6.249000e+002 3.177730e+002 5.050000e+002
         vertex 8.759891e+002 1.000000e+001 4.950000e+002
         vertex 6.249000e+002 3.177730e+002 4.950000e+002
      endloop
   endfacet
   facet normal -1.047444e-014 0.000000e+000 1.000000e+000
      outer loop
         vertex 6.249000e+002 3.177730e+002 5.050000e+002
         vertex 6.249000e+002 1.000000e+001 5.050000e+002
         vertex 8.759891e+002 1.000000e+001 5.050000e+002
      endloop
   endfacet
   facet normal 1.047444e-014 0.000000e+000 -1.000000e+000
      outer loop
         vertex 6.249000e+002 3.177730e+002 4.950000e+002
         vertex 8.759891e+002 1.000000e+001 4.950000e+002
         vertex 6.249000e+002 1.000000e+001 4.950000e+002
      endloop
   endfacet
endsolid